<svg width="331" height="659" viewBox="0 0 331 659" fill="none" xmlns="http://www.w3.org/2000/svg">
<path d="M161.117 274.382L144.117 272.382L138.117 324.382L122.798 396.19C120.667 397.228 118.929 398.926 117.842 401.032C116.754 403.138 116.376 405.538 116.763 407.876C117.151 410.214 118.283 412.365 119.991 414.008C121.699 415.65 123.892 416.697 126.244 416.993C128.595 417.289 130.979 416.817 133.041 415.648C135.102 414.479 136.731 412.676 137.685 410.506C138.639 408.337 138.867 405.917 138.335 403.608C137.802 401.298 136.538 399.223 134.731 397.69L150.117 355.382L161.117 274.382Z" fill="#FFB6B6"/>
<path d="M185.813 645.096H171.807L165.143 591.071H185.815L185.813 645.096Z" fill="#FFB6B6"/>
<path d="M189.385 658.67H144.223V658.099C144.223 653.437 146.075 648.967 149.371 645.67C152.667 642.374 157.138 640.522 161.8 640.521H189.385V658.67Z" fill="#2F2E41"/>
<path d="M293.303 637.457L279.551 640.112L262.763 588.332L283.063 584.413L293.303 637.457Z" fill="#FFB6B6"/>
<path d="M299.381 650.11L255.038 658.673L254.93 658.112C254.046 653.535 255.017 648.794 257.628 644.932C260.24 641.07 264.279 638.404 268.856 637.519L295.939 632.289L299.381 650.11Z" fill="#2F2E41"/>
<path d="M163.851 189.169L171.989 204.783L232.94 191.34L226.263 161.067C220.978 137.105 199.791 119.8 175.829 125.085C151.867 130.37 140.687 153.79 145.972 177.752L155.794 208.352L165.732 206.16L163.851 189.169Z" fill="#2F2E41"/>
<path d="M142.117 361.383C142.117 361.383 136.117 391.383 144.117 435.383C152.117 479.383 154.117 498.383 154.117 498.383C154.117 498.383 148.117 505.383 152.117 509.383C156.117 513.383 152.117 521.383 152.117 521.383L161.117 618.383L192.117 613.383L188.117 522.383C188.117 522.383 192.117 514.383 190.117 512.383C188.117 510.383 192.117 498.383 192.117 498.383L197.117 403.383L228.117 507.383C228.117 507.383 225.117 511.383 228.117 514.383C231.117 517.383 237.117 532.383 237.117 532.383L257.117 602.383L289.117 596.383L271.117 516.383C271.117 516.383 273.117 511.383 270.117 508.383C269.242 507.465 268.603 506.349 268.254 505.129C267.906 503.91 267.859 502.625 268.117 501.383C268.117 501.383 271.117 498.383 267.117 494.383C263.117 490.383 261.117 474.383 261.117 474.383C261.117 474.383 258.117 367.383 248.117 361.383C238.117 355.383 142.117 361.383 142.117 361.383Z" fill="#270041"/>
<path d="M187.334 195.921C171.87 195.921 159.334 183.385 159.334 167.921C159.334 152.457 171.87 139.921 187.334 139.921C202.798 139.921 215.334 152.457 215.334 167.921C215.334 183.385 202.798 195.921 187.334 195.921Z" fill="#FFB6B6"/>
<path d="M226.794 203.763C226.794 203.763 247.118 201.382 253.118 207.382L247.118 328.382C247.118 328.382 251.118 331.382 249.118 338.382C247.957 342.976 247.957 347.788 249.118 352.382C249.118 352.382 255.118 359.382 252.118 362.382C249.118 365.382 141.118 363.382 141.118 363.382C141.118 363.382 137.118 356.382 143.118 352.382C149.118 348.382 146.118 337.382 146.118 337.382C146.118 337.382 144.118 334.382 149.118 329.382C154.118 324.382 158.118 283.382 158.118 283.382L145.118 233.382C145.118 233.382 158.204 218.611 173.161 217.497L226.794 203.763Z" fill="#E6E6E6"/>
<path d="M160.612 234.069L145.119 233.381C145.119 233.381 136.119 251.381 135.119 267.381L129.612 327.069L165.119 332.381L160.612 234.069Z" fill="#E6E6E6"/>
<path d="M159.223 153.867L156.907 137.078C157.785 134.332 159.714 132.044 162.273 130.716C164.832 129.387 167.813 129.125 170.564 129.988L208.926 142.128C211.672 143.006 213.96 144.935 215.289 147.494C216.617 150.053 216.879 153.034 216.017 155.785L215.986 155.883L207 166.5C206.04 166.82 204.991 166.746 204.086 166.293L203.5 166C184.556 150.042 179.361 150.041 159.738 153.773L159.223 153.867Z" fill="#2F2E41"/>
<path d="M267.993 383.123L266.118 304.383L264.118 248.383L240.118 251.383L253.007 385.228C251.651 386.93 250.831 388.995 250.649 391.163C250.468 393.331 250.933 395.504 251.986 397.408C253.04 399.311 254.634 400.86 256.568 401.857C258.501 402.855 260.687 403.256 262.849 403.011C265.011 402.767 267.051 401.886 268.713 400.482C270.374 399.077 271.582 397.211 272.183 395.12C272.784 393.029 272.751 390.807 272.089 388.735C271.428 386.662 270.166 384.833 268.464 383.477C268.31 383.354 268.153 383.236 267.993 383.122V383.123Z" fill="#FFB6B6"/>
<path d="M235.611 209.069L253.118 207.381C253.118 207.381 256.118 207.381 259.118 217.381C262.118 227.381 278.61 333.069 278.61 333.069L242.117 336.381L235.611 209.069Z" fill="#E6E6E6"/>
<path d="M263.309 151.02C277.833 136.722 283.967 121.805 280.582 109.019C276.238 92.6098 256.94 81.2644 227.635 77.8916L227.527 78.8328C256.424 82.1584 275.428 93.2492 279.667 109.261C282.961 121.705 276.916 136.295 262.644 150.345L263.309 151.02Z" fill="#F0F0F0"/>
<path d="M123.176 201.773C141.303 201.773 161.001 199.079 180.567 193.899C204.763 187.494 226.948 177.825 244.723 165.939L244.197 165.151C226.507 176.98 204.42 186.605 180.324 192.983C158.55 198.748 136.611 201.419 116.889 200.715L116.855 201.661C118.938 201.736 121.045 201.773 123.176 201.773Z" fill="#F0F0F0"/>
<path d="M81.59 195.816L81.8934 194.919C65.6813 189.437 55.5412 180.607 52.5695 169.383C48.792 155.113 56.9987 138.555 75.6779 122.757C94.4524 106.879 121.526 93.7045 151.912 85.6604L151.669 84.7446C121.151 92.8241 93.9455 106.067 75.0665 122.034C56.0921 138.081 47.7772 154.983 51.6536 169.625C54.7105 181.172 65.0624 190.228 81.59 195.816Z" fill="#F0F0F0"/>
<path d="M230.455 202.169C266.074 186.372 293.52 165.877 307.739 144.459L306.95 143.935C292.83 165.204 265.527 185.578 230.071 201.303L230.455 202.169Z" fill="#F0F0F0"/>
<path d="M105.223 229.537C108.897 229.537 112.634 229.455 116.433 229.291L116.393 228.344C88.0391 229.572 63.0223 226.179 44.0419 218.53L43.6876 219.409C60.2448 226.08 81.3481 229.537 105.223 229.537Z" fill="#F0F0F0"/>
<path d="M125.89 78.741C131.777 76.8243 137.832 75.0396 143.888 73.4365C178.734 64.2113 212.989 60.9359 242.95 63.9662L243.045 63.0236C212.973 59.9834 178.601 63.2666 143.645 72.5207C137.573 74.1284 131.5 75.9182 125.596 77.8405L125.89 78.741Z" fill="#F0F0F0"/>
<path d="M285.57 152.441C300.094 138.143 306.228 123.226 302.843 110.44C298.499 94.0307 279.2 82.6853 249.896 79.3125L249.787 80.2537C278.684 83.5793 297.688 94.6701 301.927 110.682C305.222 123.126 299.176 137.716 284.905 151.766L285.57 152.441Z" fill="#F0F0F0"/>
<path d="M145.436 203.194C163.563 203.194 183.261 200.5 202.827 195.32C227.023 188.915 249.208 179.246 266.984 167.359L266.458 166.572C248.767 178.401 226.681 188.026 202.585 194.404C180.81 200.169 158.872 202.84 139.15 202.135L139.116 203.082C141.198 203.157 143.305 203.194 145.436 203.194Z" fill="#F0F0F0"/>
<path d="M103.851 197.237L104.154 196.34C87.942 190.858 77.802 182.028 74.8302 170.804C71.0527 156.534 79.2594 139.976 97.9386 124.178C116.713 108.3 143.786 95.1254 174.172 87.0813L173.93 86.1655C143.411 94.245 116.206 107.488 97.3272 123.455C78.3528 139.502 70.0379 156.403 73.9144 171.046C76.9713 182.593 87.3232 191.649 103.851 197.237Z" fill="#F0F0F0"/>
<path d="M252.716 203.59C288.334 187.793 315.781 167.298 330 145.88L329.211 145.356C315.09 166.625 287.788 186.999 252.332 202.724L252.716 203.59Z" fill="#F0F0F0"/>
<path d="M127.484 230.957C131.158 230.957 134.895 230.875 138.694 230.711L138.653 229.765C110.3 230.993 85.283 227.6 66.3026 219.951L65.9483 220.829C82.5055 227.501 103.609 230.957 127.484 230.957Z" fill="#F0F0F0"/>
<path d="M148.15 80.1619C154.037 78.2452 160.093 76.4605 166.148 74.8574C200.995 65.6322 235.25 62.3568 265.211 65.3871L265.306 64.4445C235.233 61.4043 200.861 64.6875 165.906 73.9416C159.833 75.5493 153.761 77.3391 147.857 79.2614L148.15 80.1619Z" fill="#F0F0F0"/>
<path d="M297.911 101.468C295.818 101.468 294.122 99.7718 294.122 97.6792C294.122 95.5865 295.818 93.8901 297.911 93.8901C300.003 93.8901 301.7 95.5865 301.7 97.6792C301.7 99.7718 300.003 101.468 297.911 101.468Z" fill="#270041"/>
<path d="M103.249 82.5229C101.156 82.5229 99.4595 80.8265 99.4595 78.7339C99.4595 76.6412 101.156 74.9448 103.249 74.9448C105.341 74.9448 107.038 76.6412 107.038 78.7339C107.038 80.8265 105.341 82.5229 103.249 82.5229Z" fill="#270041"/>
<path d="M78.1463 217.034C76.0536 217.034 74.3572 215.338 74.3572 213.245C74.3572 211.152 76.0536 209.456 78.1463 209.456C80.2389 209.456 81.9353 211.152 81.9353 213.245C81.9353 215.338 80.2389 217.034 78.1463 217.034Z" fill="#270041"/>
<path d="M247.835 112.505L247.691 111.568L229.185 114.407C231.071 112.587 237.316 106.956 242.98 106.385C249.747 105.704 252.724 108.6 253.118 112.504C253.511 116.408 251.172 119.841 244.405 120.523C238.669 121.101 231.313 116.713 229.204 115.363L247.835 112.505Z" fill="#270041"/>
<path d="M70.7495 62.3398L71.3205 61.5837L56.3801 50.3003C59.0001 50.3823 67.3907 50.9319 71.7499 54.5933C76.9576 58.9674 76.9578 63.1212 74.4343 66.1258C71.9107 69.1303 67.8194 69.8477 62.6115 65.4736C58.197 61.7659 56.2113 53.4337 55.7085 50.9803L70.7495 62.3398Z" fill="#F2F2F2"/>
<path d="M106.027 170.961L106.438 170.417L95.689 162.299C97.5739 162.358 103.61 162.753 106.747 165.387C110.493 168.534 110.493 171.523 108.678 173.684C106.862 175.846 103.919 176.362 100.172 173.215C96.9961 170.548 95.5675 164.553 95.2058 162.788L106.027 170.961Z" fill="#270041"/>
<path d="M191.117 41.7481C188.205 33.9181 181.324 27.1524 173.009 26.3477C178.008 33.9333 180.163 43.0427 179.092 52.0642C178.667 55.5419 177.831 59.3657 179.706 62.3256C180.872 64.1673 182.928 65.3012 185.047 65.8128C187.166 66.3245 189.375 66.2849 191.554 66.2423L192.042 66.4832C193.575 58.271 194.029 49.5782 191.117 41.7481Z" fill="#270041"/>
<path d="M172.969 26.5182C178.637 30.4783 182.914 36.1238 185.191 42.6529C185.706 44.0497 185.998 45.5191 186.056 47.0068C186.065 48.4578 185.686 49.8849 184.957 51.1397C184.301 52.3234 183.493 53.4581 183.136 54.7806C182.964 55.4603 182.937 56.1688 183.057 56.8596C183.177 57.5504 183.442 58.208 183.835 58.7891C184.775 60.2627 186.188 61.3106 187.606 62.2874C189.18 63.3719 190.833 64.4734 191.796 66.1771C191.913 66.3835 192.226 66.1903 192.109 65.9842C190.434 63.0201 186.917 61.9434 184.765 59.4257C183.761 58.2508 183.105 56.7663 183.415 55.2019C183.687 53.8339 184.519 52.663 185.194 51.4703C185.923 50.2566 186.343 48.8829 186.419 47.4692C186.437 45.9834 186.202 44.5053 185.725 43.0982C184.7 39.9132 183.181 36.9091 181.223 34.196C179.005 31.0872 176.272 28.3806 173.142 26.1934C172.948 26.0581 172.776 26.3838 172.969 26.5182V26.5182Z" fill="white"/>
<path d="M184.581 40.5075C185.625 39.9767 186.446 39.0923 186.897 38.0121C187.349 36.9319 187.402 35.7264 187.047 34.6108C186.974 34.3853 186.621 34.4875 186.693 34.7133C187.026 35.7516 186.976 36.8746 186.554 37.8795C186.131 38.8845 185.363 39.7054 184.389 40.1939C184.177 40.3003 184.371 40.6133 184.581 40.5075Z" fill="white"/>
<path d="M185.368 50.5833C183.086 49.8625 181.159 48.308 179.973 46.2297C179.855 46.0237 179.542 46.2168 179.659 46.4225C180.898 48.5829 182.906 50.1966 185.283 50.9414C185.51 51.0123 185.594 50.6537 185.368 50.5833Z" fill="white"/>
<path d="M178.753 31.5054C178.392 31.795 177.965 31.9903 177.51 32.0739C177.054 32.1574 176.586 32.1267 176.145 31.9843C175.92 31.9107 175.836 32.2693 176.06 32.3425C176.547 32.4975 177.065 32.5308 177.568 32.4396C178.071 32.3484 178.544 32.1353 178.946 31.8191C178.986 31.7925 179.015 31.7515 179.026 31.7044C179.037 31.6574 179.03 31.6078 179.006 31.5658C178.98 31.5244 178.939 31.4949 178.892 31.4836C178.845 31.4723 178.795 31.4801 178.753 31.5054Z" fill="white"/>
<path d="M152.967 46.3067C153.106 46.3568 153.246 46.4068 153.386 46.4598C155.259 47.1419 157.072 47.9749 158.81 48.9508C158.946 49.0241 159.082 49.1004 159.215 49.1775C163.376 51.5731 167.056 54.7205 170.068 58.4596C171.266 59.9486 172.348 61.5265 173.306 63.1797C174.628 65.4629 175.881 68.0437 177.823 69.7076C178.024 69.8834 178.236 70.0467 178.456 70.1964L191.711 67.0601C191.737 67.0379 191.765 67.0186 191.791 66.9963L192.326 66.8953C192.283 66.8066 192.236 66.7155 192.192 66.6268C192.167 66.5753 192.139 66.5244 192.114 66.4728C192.097 66.4387 192.079 66.4045 192.065 66.3727C192.059 66.3613 192.053 66.35 192.048 66.3416C192.034 66.3097 192.018 66.2817 192.005 66.2529C191.744 65.7431 191.479 65.2342 191.209 64.7263C191.209 64.7233 191.209 64.7233 191.205 64.7209C189.191 60.8311 186.722 57.194 183.851 53.8858C183.764 53.7882 183.677 53.6876 183.583 53.5915C182.272 52.1366 180.844 50.7914 179.314 49.5692C178.474 48.9026 177.6 48.279 176.697 47.7008C174.36 46.2112 171.804 45.0984 169.121 44.4033C163.774 43.0182 158.043 43.3589 153.325 46.0942C153.204 46.1643 153.086 46.2337 152.967 46.3067Z" fill="#270041"/>
<path d="M153.036 46.4678C159.946 46.2169 166.76 48.1497 172.509 51.9917C173.762 52.7968 174.879 53.7943 175.821 54.9474C176.702 56.1004 177.258 57.4683 177.432 58.9089C177.621 60.2489 177.659 61.6415 178.17 62.9122C178.442 63.5588 178.847 64.1407 179.359 64.6198C179.871 65.0989 180.478 65.4643 181.141 65.6921C182.779 66.3027 184.539 66.2884 186.259 66.2147C188.169 66.1328 190.151 66.0175 191.946 66.7979C192.163 66.8924 192.297 66.5495 192.08 66.4551C188.958 65.0974 185.501 66.3552 182.267 65.6403C180.758 65.3067 179.341 64.5164 178.647 63.0804C178.04 61.8247 177.999 60.3888 177.82 59.0303C177.671 57.6224 177.18 56.2724 176.389 55.0982C175.509 53.9008 174.432 52.8619 173.203 52.026C170.467 50.0999 167.446 48.616 164.249 47.6286C160.607 46.4814 156.795 45.9658 152.979 46.104C152.743 46.1126 152.801 46.4764 153.036 46.4678L153.036 46.4678Z" fill="white"/>
<path d="M170.731 50.6453C171.244 49.5932 171.367 48.3928 171.078 47.2584C170.788 46.124 170.104 45.1296 169.149 44.4526C168.955 44.3163 168.735 44.611 168.929 44.7475C169.819 45.3762 170.456 46.3026 170.723 47.3595C170.991 48.4164 170.872 49.5341 170.388 50.511C170.283 50.7234 170.626 50.8565 170.731 50.6453Z" fill="white"/>
<path d="M177.426 58.2166C175.169 59.0152 172.695 58.934 170.496 57.9892C170.278 57.8954 170.144 58.2384 170.362 58.332C172.652 59.3109 175.227 59.3902 177.573 58.554C177.797 58.4742 177.648 58.1372 177.426 58.2166Z" fill="white"/>
<path d="M160.657 46.9668C160.543 47.4153 160.32 47.8284 160.007 48.1692C159.694 48.5099 159.301 48.7676 158.864 48.919C158.639 48.996 158.788 49.3329 159.011 49.2564C159.493 49.0869 159.927 48.8018 160.273 48.4261C160.62 48.0503 160.87 47.5954 161 47.1011C161.016 47.0555 161.014 47.0055 160.995 46.9612C160.976 46.9169 160.94 46.8816 160.896 46.8625C160.85 46.845 160.8 46.8461 160.755 46.8656C160.71 46.8851 160.675 46.9215 160.657 46.9668H160.657Z" fill="white"/>
<path d="M231.375 149.736C228.463 141.906 221.582 135.14 213.267 134.335C218.266 141.921 220.421 151.031 219.351 160.052C218.925 163.53 218.09 167.353 219.964 170.313C221.131 172.155 223.187 173.289 225.306 173.801C227.425 174.312 229.633 174.273 231.813 174.23L232.301 174.471C233.834 166.259 234.288 157.566 231.375 149.736Z" fill="#270041"/>
<path d="M213.227 134.506C218.896 138.466 223.172 144.112 225.45 150.641C225.965 152.038 226.257 153.507 226.314 154.995C226.324 156.446 225.944 157.873 225.215 159.128C224.559 160.311 223.751 161.446 223.395 162.768C223.222 163.448 223.195 164.157 223.316 164.847C223.436 165.538 223.701 166.196 224.093 166.777C225.033 168.25 226.447 169.298 227.865 170.275C229.439 171.36 231.091 172.461 232.054 174.165C232.171 174.371 232.485 174.178 232.368 173.972C230.692 171.008 227.175 169.931 225.024 167.413C224.02 166.239 223.364 164.754 223.674 163.19C223.945 161.822 224.778 160.651 225.452 159.458C226.181 158.244 226.602 156.871 226.677 155.457C226.695 153.971 226.461 152.493 225.983 151.086C224.958 147.901 223.439 144.897 221.481 142.184C219.264 139.075 216.531 136.368 213.401 134.181C213.207 134.046 213.035 134.372 213.227 134.506V134.506Z" fill="#270041"/>
<path d="M224.84 148.495C225.883 147.964 226.704 147.08 227.156 145.999C227.608 144.919 227.661 143.714 227.306 142.598C227.233 142.373 226.879 142.475 226.952 142.701C227.284 143.739 227.235 144.862 226.812 145.867C226.39 146.872 225.622 147.693 224.647 148.181C224.435 148.288 224.629 148.601 224.84 148.495Z" fill="white"/>
<path d="M225.627 158.571C223.345 157.85 221.418 156.296 220.231 154.217C220.114 154.011 219.8 154.205 219.917 154.41C221.157 156.571 223.165 158.184 225.542 158.929C225.768 159 225.852 158.642 225.627 158.571Z" fill="white"/>
<path d="M219.012 139.493C218.651 139.782 218.223 139.978 217.768 140.061C217.313 140.145 216.844 140.114 216.404 139.972C216.179 139.898 216.095 140.257 216.319 140.33C216.806 140.485 217.324 140.518 217.827 140.427C218.33 140.336 218.803 140.123 219.205 139.806C219.245 139.78 219.274 139.739 219.285 139.692C219.296 139.645 219.289 139.595 219.265 139.553C219.239 139.512 219.198 139.482 219.151 139.471C219.103 139.46 219.053 139.467 219.012 139.493Z" fill="white"/>
<path d="M193.225 154.294C193.365 154.344 193.504 154.394 193.645 154.447C195.517 155.129 197.331 155.962 199.069 156.938C199.204 157.011 199.34 157.088 199.474 157.165C203.635 159.56 207.315 162.708 210.327 166.447C211.524 167.936 212.606 169.514 213.564 171.167C214.887 173.45 216.139 176.031 218.082 177.695C218.283 177.871 218.494 178.034 218.715 178.184L231.969 175.047C231.996 175.025 232.023 175.006 232.05 174.984L232.585 174.883C232.541 174.794 232.494 174.703 232.451 174.614C232.426 174.563 232.398 174.512 232.373 174.46C232.355 174.426 232.338 174.392 232.324 174.36C232.318 174.349 232.312 174.337 232.307 174.329C232.293 174.297 232.277 174.269 232.263 174.24C232.002 173.73 231.737 173.221 231.468 172.714C231.467 172.711 231.467 172.711 231.464 172.708C229.449 168.818 226.981 165.181 224.11 161.873C224.023 161.776 223.935 161.675 223.842 161.579C222.531 160.124 221.103 158.779 219.572 157.556C218.732 156.89 217.859 156.266 216.956 155.688C214.619 154.199 212.062 153.086 209.38 152.391C204.032 151.006 198.301 151.346 193.584 154.082C193.463 154.152 193.345 154.221 193.225 154.294Z" fill="#270041"/>
<path d="M193.295 154.456C200.205 154.205 207.018 156.137 212.768 159.979C214.02 160.785 215.138 161.782 216.079 162.935C216.96 164.088 217.517 165.456 217.69 166.897C217.879 168.237 217.917 169.629 218.429 170.9C218.7 171.547 219.105 172.128 219.617 172.608C220.129 173.087 220.737 173.452 221.4 173.68C223.038 174.29 224.797 174.276 226.517 174.202C228.427 174.121 230.41 174.005 232.204 174.786C232.422 174.88 232.556 174.537 232.339 174.443C229.216 173.085 225.76 174.343 222.526 173.628C221.017 173.294 219.599 172.504 218.905 171.068C218.298 169.813 218.258 168.377 218.079 167.018C217.93 165.61 217.438 164.26 216.648 163.086C215.768 161.889 214.69 160.85 213.462 160.014C210.726 158.088 207.704 156.604 204.507 155.616C200.865 154.469 197.054 153.954 193.238 154.092C193.001 154.1 193.06 154.464 193.295 154.456L193.295 154.456Z" fill="white"/>
<path d="M217.684 166.204C215.428 167.003 212.954 166.922 210.755 165.977C210.537 165.883 210.403 166.226 210.62 166.32C212.911 167.299 215.486 167.378 217.832 166.542C218.055 166.462 217.907 166.125 217.684 166.204Z" fill="white"/>
<path d="M66.3892 208.426C67.8754 202.87 66.7097 196.329 62.363 192.563C62.1457 198.814 59.7244 204.786 55.5276 209.423C53.9026 211.206 51.9096 213.019 51.7822 215.428C51.7749 216.946 52.3506 218.409 53.3904 219.515C54.4251 220.604 55.595 221.557 56.8718 222.349L57.0497 222.679C61.1834 218.68 64.903 213.982 66.3892 208.426Z" fill="#F0F0F0"/>
<path d="M62.2724 192.643C63.8759 197.125 64.0262 201.999 62.7022 206.571C62.4346 207.561 62.0128 208.502 61.4521 209.36C60.879 210.178 60.0973 210.828 59.1881 211.242C58.3133 211.579 57.4828 212.022 56.7148 212.56C56.347 212.872 56.0495 213.259 55.8417 213.695C55.634 214.131 55.5207 214.606 55.5093 215.088C55.5155 216.281 55.7612 217.46 56.2319 218.555C56.6832 219.791 57.1717 221.068 57.0333 222.408C57.0165 222.571 57.2695 222.587 57.2862 222.425C57.527 220.093 55.9819 218.087 55.7777 215.816C55.7 215.293 55.743 214.759 55.9035 214.255C56.064 213.75 56.3377 213.29 56.7036 212.908C57.4013 212.248 58.3351 211.922 59.1892 211.522C60.082 211.131 60.8656 210.527 61.4715 209.764C62.074 208.937 62.5314 208.014 62.8242 207.034C63.5184 204.837 63.863 202.546 63.8453 200.242C63.8397 197.614 63.3844 195.005 62.4992 192.53C62.4444 192.376 62.2179 192.491 62.2724 192.643L62.2724 192.643Z" fill="white"/>
<path d="M63.2149 205.124C64.0122 205.242 64.8255 205.073 65.5096 204.646C66.1936 204.22 66.7039 203.565 66.9492 202.797C66.9983 202.641 66.759 202.558 66.7098 202.713C66.4827 203.429 66.0073 204.039 65.3695 204.435C64.7317 204.831 63.9735 204.985 63.2317 204.871C63.0704 204.847 63.0546 205.1 63.2149 205.124Z" fill="white"/>
<path d="M59.6407 211.094C58.647 209.78 58.1851 208.139 58.3472 206.5C58.3634 206.337 58.1104 206.321 58.0943 206.483C57.9288 208.189 58.4129 209.896 59.45 211.261C59.549 211.391 59.7392 211.223 59.6407 211.094Z" fill="white"/>
<path d="M63.5316 197.748C63.2136 197.767 62.8959 197.706 62.6071 197.572C62.3183 197.437 62.0675 197.233 61.877 196.978C61.7798 196.847 61.5897 197.014 61.6863 197.145C61.898 197.426 62.1754 197.651 62.4941 197.8C62.8128 197.95 63.1633 198.019 63.5148 198.001C63.5481 198.002 63.5806 197.991 63.6056 197.969C63.6307 197.947 63.6464 197.916 63.6497 197.883C63.6517 197.85 63.6405 197.817 63.6184 197.791C63.5962 197.766 63.5651 197.751 63.5316 197.748Z" fill="white"/>
<path d="M43.1575 195.778C43.2159 195.862 43.2743 195.946 43.332 196.031C44.1112 197.161 44.7974 198.351 45.3838 199.592C45.4306 199.687 45.4767 199.784 45.5207 199.88C46.9016 202.884 47.7129 206.117 47.9133 209.417C47.9919 210.729 47.9704 212.047 47.8491 213.356C47.6816 215.165 47.356 217.113 47.7831 218.821C47.8257 219 47.8793 219.176 47.9436 219.348L56.6336 222.87C56.6573 222.868 56.6804 222.869 56.7043 222.867L57.0448 223.023C57.0558 222.956 57.0657 222.886 57.0767 222.819C57.0832 222.78 57.0878 222.741 57.0943 222.702C57.0981 222.675 57.1017 222.649 57.1066 222.626C57.1079 222.617 57.109 222.608 57.1095 222.602C57.1144 222.578 57.1164 222.556 57.1205 222.534C57.1771 222.144 57.2311 221.753 57.2824 221.361C57.2832 221.359 57.2832 221.359 57.2821 221.356C57.7019 218.37 57.7659 215.344 57.4729 212.343C57.4629 212.253 57.4538 212.162 57.4399 212.071C57.2838 210.731 57.0184 209.407 56.6465 208.111C56.4405 207.402 56.1988 206.704 55.9223 206.019C55.2044 204.252 54.2129 202.608 52.9843 201.149C50.5346 198.24 47.1817 196.147 43.4434 195.802C43.3478 195.793 43.254 195.785 43.1575 195.778Z" fill="#F0F0F0"/>
<path d="M43.1322 195.897C47.1111 198.51 50.1654 202.311 51.8612 206.759C52.2433 207.71 52.4731 208.716 52.5421 209.738C52.5771 210.737 52.3441 211.726 51.8674 212.604C51.3722 213.4 50.9756 214.253 50.6862 215.145C50.5808 215.616 50.5762 216.105 50.6727 216.578C50.7692 217.051 50.9645 217.498 51.246 217.89C51.9688 218.838 52.8748 219.632 53.9102 220.223C55.0149 220.938 56.1737 221.664 56.8701 222.817C56.9545 222.957 57.1664 222.818 57.0821 222.678C55.8705 220.672 53.4289 220 51.8987 218.31C51.5216 217.939 51.2343 217.486 51.0589 216.987C50.8835 216.488 50.8246 215.955 50.8867 215.43C51.0466 214.483 51.5962 213.661 52.0369 212.827C52.5145 211.977 52.7768 211.024 52.801 210.049C52.7842 209.026 52.5936 208.014 52.2372 207.055C51.4692 204.883 50.3645 202.846 48.9636 201.018C47.3764 198.922 45.4424 197.113 43.2452 195.67C43.1092 195.581 42.9971 195.808 43.1323 195.897L43.1322 195.897Z" fill="white"/>
<path d="M51.3992 205.295C52.1069 204.909 52.6544 204.284 52.9439 203.532C53.2334 202.78 53.2461 201.949 52.9797 201.188C52.9253 201.034 52.6838 201.112 52.7383 201.266C52.9877 201.974 52.9758 202.747 52.7048 203.447C52.4337 204.147 51.9214 204.727 51.2603 205.083C51.1167 205.16 51.2565 205.372 51.3992 205.295Z" fill="white"/>
<path d="M52.1395 212.213C50.5547 211.762 49.1982 210.73 48.3405 209.323C48.2556 209.184 48.0436 209.323 48.1284 209.462C49.0238 210.924 50.4376 211.995 52.0878 212.461C52.2451 212.505 52.2959 212.257 52.1395 212.213V212.213Z" fill="white"/>
<path d="M47.2111 199.215C46.9684 199.421 46.6783 199.564 46.3667 199.63C46.0552 199.697 45.732 199.685 45.4262 199.596C45.2695 199.55 45.2188 199.798 45.3744 199.844C45.7128 199.941 46.0697 199.954 46.4141 199.881C46.7585 199.808 47.0798 199.652 47.35 199.427C47.3773 199.408 47.3962 199.379 47.403 199.346C47.4098 199.314 47.4039 199.28 47.3866 199.251C47.3681 199.223 47.3392 199.204 47.3064 199.197C47.2735 199.19 47.2393 199.197 47.2111 199.215Z" fill="white"/>
<path d="M250.544 24.303L251.155 25.1646C255.807 31.7337 263.097 35.9426 271.112 36.687L272.163 36.7846L271.302 37.3948C264.732 42.047 260.524 49.337 259.779 57.3521L259.681 58.4034L259.071 57.5418C254.419 50.9727 247.129 46.7638 239.114 46.0194L238.063 45.9218L238.924 45.3116C245.493 40.6593 249.702 33.3694 250.447 25.3542L250.544 24.303Z" fill="white"/>
<path d="M292.459 146.125L292.281 147.165C290.926 155.1 293.104 163.231 298.246 169.425L298.92 170.237L297.879 170.059C289.944 168.704 281.814 170.883 275.62 176.024L274.807 176.698L274.985 175.658C276.34 167.723 274.162 159.592 269.021 153.398L268.346 152.586L269.387 152.763C277.322 154.119 285.453 151.94 291.647 146.799L292.459 146.125Z" fill="white"/>
<path d="M83.4762 99.9657L82.8665 101.292C78.2178 111.401 78.2178 123.037 82.8665 133.147L83.4762 134.473L82.1502 133.863C72.0404 129.215 60.4044 129.215 50.2946 133.863L48.9686 134.473L49.5784 133.147C54.227 123.037 54.227 111.401 49.5784 101.292L48.9686 99.9657L50.2946 100.575C60.4044 105.224 72.0405 105.224 82.1502 100.575L83.4762 99.9657Z" fill="white"/>
<path d="M248.048 10.8371L248.111 10.164L248.501 10.7156C257.518 23.448 271.648 31.6057 287.183 33.0486L287.856 33.1111L287.304 33.5017C274.572 42.5188 266.414 56.6483 264.972 72.1835L264.909 72.8565L264.518 72.3049C255.501 59.5725 241.372 51.4148 225.837 49.972L225.164 49.9095L225.715 49.5188C238.448 40.5017 246.605 26.3722 248.048 10.8371Z" stroke="black"/>
<path d="M300.216 134.838L300.736 134.406L300.622 135.072C297.995 150.452 302.218 166.211 312.182 178.216L312.614 178.736L311.948 178.623C296.569 175.995 280.809 180.218 268.804 190.183L268.284 190.615L268.398 189.948C271.025 174.569 266.802 158.81 256.837 146.804L256.406 146.284L257.072 146.398C272.451 149.025 288.211 144.803 300.216 134.838Z" stroke="black"/>
<path d="M97.7915 87.496L99.1098 86.8898L98.5036 88.2081C89.5168 107.752 89.5168 130.247 98.5036 149.792L99.1098 151.11L97.7915 150.504C78.2472 141.517 55.7523 141.517 36.2081 150.504L34.8897 151.11L35.4959 149.792C44.4827 130.247 44.4827 107.752 35.4959 88.2081L34.8897 86.8898L36.208 87.496C55.7523 96.4828 78.2472 96.4828 97.7915 87.496Z" stroke="black"/>
</svg>
